# xmcd
#
# Track frame offsets:
#	150
#	7928
#	23985
#	31106
#	44702
#	55675
#	67969
#	80279
#	89116
#	101512
#	115613
#	121128
#	133927
#	144680
#	156415
#	167890
#	181468
#	190764
#	206031
#	222038
#	232057
#	242759
#	259372
#	268616
#	281547
#	291808
#	302470
#	317210
#
# Disc length: 4423 seconds
#
# Revision: 3
# Processed by: cddbd v1.5.1PL0 Copyright (c) Steve Scherf et al.
# Submitted via: audiograbber 1.83.01
#
DISCID=9b11451c
DTITLE=Elvis Presley - King of world music
DYEAR=2005
DGENRE=Blues
TTITLE0=Johny B. goode
TTITLE1=Always on my mind
TTITLE2=Dirty, dirty feeling
TTITLE3=Can't help falling in love
TTITLE4=Paralyzed
TTITLE5=Love me tender
TTITLE6=Tiger man
TTITLE7=Ready Teddy
TTITLE8=Love me
TTITLE9=Are you lonesome tonight
TTITLE10=Blue suede shoes
TTITLE11=Don't
TTITLE12=The girl of my best friend
TTITLE13=G.I. blues
TTITLE14=Sentimental me
TTITLE15=Such a night
TTITLE16=Young and beautiful
TTITLE17=Heartbreak hotel
TTITLE18=Fever
TTITLE19=Loving you
TTITLE20=Baby what you want me to do
TTITLE21=Reconsider baby
TTITLE22=Don't be cruel
TTITLE23=Love letters
TTITLE24=Hound dog
TTITLE25=I'm yours
TTITLE26=It's now or never
TTITLE27=That's all right
EXTD=
EXTT0=
EXTT1=
EXTT2=
EXTT3=
EXTT4=
EXTT5=
EXTT6=
EXTT7=
EXTT8=
EXTT9=
EXTT10=
EXTT11=
EXTT12=
EXTT13=
EXTT14=
EXTT15=
EXTT16=
EXTT17=
EXTT18=
EXTT19=
EXTT20=
EXTT21=
EXTT22=
EXTT23=
EXTT24=
EXTT25=
EXTT26=
EXTT27=
PLAYORDER=
